<?xml version="1.0" encoding="utf-8"?>
<!-- Generator: Adobe Illustrator 23.0.2, SVG Export Plug-In . SVG Version: 6.00 Build 0)  -->
<svg version="1.1" id="Layer_1" xmlns="http://www.w3.org/2000/svg" xmlns:xlink="http://www.w3.org/1999/xlink" x="0px" y="0px"
	 viewBox="0 0 2217 792.2" style="enable-background:new 0 0 2217 792.2;" xml:space="preserve">
<style type="text/css">
	.st0{fill:#10A7E3;}
	.st1{fill:#E53527;}
	.st2{fill:#F4AF00;}
	.st3{fill:#D4007A;}
	.st4{fill:#89BA17;}
	.st5{fill:#00539F;}
	.st6{fill:#005AA9;}
</style>
<g>
	<g>
		<g>
			<path class="st0" d="M1134,570.4h34.9c-1.6,5.8-4.2,10.8-7.6,14.7c-3.6,4.3-8.3,7.8-14.2,10.3c-5.8,2.6-12,3.9-18.3,3.9
				c-10.5,0-19.6-3.6-27-10.9c-7.4-7.2-11.1-16.1-11.1-26.4c0-7.6,2-14.8,5.9-21.4c3.9-6.6,9.4-12.1,16.3-16.1s14.2-6,21.6-6
				c6.7,0,13.3,1.6,19.6,5c6.3,3.3,12,8.1,16.7,14.3l0.6,0.8l9.3-6.8l-0.6-0.8c-12.1-15.6-27.4-23.4-45.3-23.4
				c-10,0-19.3,2.5-27.9,7.4c-8.6,4.9-15.4,11.7-20.4,20.1c-4.9,8.4-7.4,17.7-7.4,27.5c0,13.7,4.8,25.3,14.1,34.4
				c9.4,9.1,21.6,13.7,36.6,13.7c14.5,0,26.9-4.7,36.7-14s15.2-21.5,16.2-36.5l0.1-1.1h-48.8L1134,570.4L1134,570.4z"/>
			<polygon class="st0" points="1211.9,608.1 1222.8,608.1 1236.4,507.5 1225.4,507.5 			"/>
			<path class="st0" d="M1320.6,537.6c-5.2-3-10.9-4.5-17.1-4.5c-7.5,0-14.5,1.9-21,5.6c-6.4,3.7-11.6,8.9-15.2,15.4
				c-3.7,6.5-5.6,13.8-5.6,21.4c0,9.9,3.3,18.2,9.6,24.6c6.3,6.4,14.5,9.7,24.3,9.7c7.8,0,15-1.8,21.2-5.4
				c6.2-3.5,11.3-8.7,14.9-15.2c3.7-6.5,5.6-13.7,5.6-21.2c0-6.7-1.4-12.7-4.4-18C1329.9,544.8,1325.8,540.6,1320.6,537.6z
				 M1311.6,595.5c-4.5,2.6-9.6,3.9-15,3.9c-7.1,0-12.8-2.3-17.2-6.8c-4.4-4.5-6.7-10.4-6.7-17.6c0-5.7,1.3-11.1,3.9-15.9
				c2.6-4.8,6.3-8.6,11.2-11.3c4.8-2.8,10-4.1,15.5-4.1c4.3,0,8.2,1.1,11.9,3.1c3.5,2,6.4,4.9,8.3,8.5c2,3.6,3,7.9,3,12.6
				c0,5.7-1.3,11.1-4,16.1l0,0C1319.7,589.1,1316.1,593,1311.6,595.5z"/>
			<path class="st0" d="M1416.5,533.2c-10,0-18.9,3.7-27,11l4.9-36.7h-11.2l-13.6,100.6h11.4l1.4-11.9c3,4.3,6.5,7.6,10.4,9.8
				c4.6,2.6,10,3.9,16.1,3.9c11.2,0,21-4.2,29.2-12.4c8.2-8.3,12.3-18.4,12.3-29.9c0-10-3.3-18.4-9.6-24.8
				C1434.7,536.4,1426.4,533.2,1416.5,533.2z M1399.8,547.5c4.7-2.7,10-4,15.6-4c7.2,0,13.1,2.2,17.5,6.7c4.4,4.4,6.7,10.3,6.7,17.6
				c0,8.9-3.1,16.6-9.1,22.6c-6,6.1-13.3,9.2-21.8,9.2c-7.1,0-13-2.2-17.4-6.7c-4.5-4.4-6.7-10.2-6.7-17.3c0-5.9,1.4-11.5,4.1-16.5
				C1391.4,554,1395.1,550.2,1399.8,547.5z"/>
			<path class="st0" d="M1549.2,546.6c-2.9-4.2-6.3-7.5-10.2-9.7c-4.6-2.6-10-3.8-16.1-3.8c-11.2,0-21.1,4.2-29.3,12.4
				c-8.2,8.3-12.4,18.4-12.4,29.9c0,10,3.3,18.4,9.6,24.8c6.4,6.4,14.6,9.7,24.5,9.7c10,0,19-3.6,26.9-10.9l-1.1,9.1h11.2l9.9-73.1
				h-11.4L1549.2,546.6z M1543,584.1c-2.7,5-6.5,8.9-11.1,11.6c-4.7,2.7-9.9,4-15.6,4c-7.2,0-13-2.2-17.4-6.7
				c-4.4-4.4-6.7-10.3-6.7-17.6c0-8.9,3.1-16.6,9.1-22.6c6-6.1,13.3-9.2,21.7-9.2c7.2,0,13,2.2,17.4,6.6c4.4,4.4,6.7,10.2,6.7,17.3
				C1547.1,573.4,1545.8,579,1543,584.1z"/>
			<polygon class="st0" points="1603.4,507.5 1589.7,608.1 1600.6,608.1 1614.2,507.5 			"/>
		</g>
		<g>
			<path class="st0" d="M1134,570.4h34.9c-1.6,5.8-4.2,10.8-7.6,14.7c-3.6,4.3-8.3,7.8-14.2,10.3c-5.8,2.6-12,3.9-18.3,3.9
				c-10.5,0-19.6-3.6-27-10.9c-7.4-7.2-11.1-16.1-11.1-26.4c0-7.6,2-14.8,5.9-21.4c3.9-6.6,9.4-12.1,16.3-16.1s14.2-6,21.6-6
				c6.7,0,13.3,1.6,19.6,5c6.3,3.3,12,8.1,16.7,14.3l0.6,0.8l9.3-6.8l-0.6-0.8c-12.1-15.6-27.4-23.4-45.3-23.4
				c-10,0-19.3,2.5-27.9,7.4c-8.6,4.9-15.4,11.7-20.4,20.1c-4.9,8.4-7.4,17.7-7.4,27.5c0,13.7,4.8,25.3,14.1,34.4
				c9.4,9.1,21.6,13.7,36.6,13.7c14.5,0,26.9-4.7,36.7-14s15.2-21.5,16.2-36.5l0.1-1.1h-48.8L1134,570.4L1134,570.4z"/>
			<polygon class="st0" points="1211.9,608.1 1222.8,608.1 1236.4,507.5 1225.4,507.5 			"/>
			<path class="st0" d="M1320.6,537.6c-5.2-3-10.9-4.5-17.1-4.5c-7.5,0-14.5,1.9-21,5.6c-6.4,3.7-11.6,8.9-15.2,15.4
				c-3.7,6.5-5.6,13.8-5.6,21.4c0,9.9,3.3,18.2,9.6,24.6c6.3,6.4,14.5,9.7,24.3,9.7c7.8,0,15-1.8,21.2-5.4
				c6.2-3.5,11.3-8.7,14.9-15.2c3.7-6.5,5.6-13.7,5.6-21.2c0-6.7-1.4-12.7-4.4-18C1329.9,544.8,1325.8,540.6,1320.6,537.6z
				 M1311.6,595.5c-4.5,2.6-9.6,3.9-15,3.9c-7.1,0-12.8-2.3-17.2-6.8c-4.4-4.5-6.7-10.4-6.7-17.6c0-5.7,1.3-11.1,3.9-15.9
				c2.6-4.8,6.3-8.6,11.2-11.3c4.8-2.8,10-4.1,15.5-4.1c4.3,0,8.2,1.1,11.9,3.1c3.5,2,6.4,4.9,8.3,8.5c2,3.6,3,7.9,3,12.6
				c0,5.7-1.3,11.1-4,16.1l0,0C1319.7,589.1,1316.1,593,1311.6,595.5z"/>
			<path class="st0" d="M1416.5,533.2c-10,0-18.9,3.7-27,11l4.9-36.7h-11.2l-13.6,100.6h11.4l1.4-11.9c3,4.3,6.5,7.6,10.4,9.8
				c4.6,2.6,10,3.9,16.1,3.9c11.2,0,21-4.2,29.2-12.4c8.2-8.3,12.3-18.4,12.3-29.9c0-10-3.3-18.4-9.6-24.8
				C1434.7,536.4,1426.4,533.2,1416.5,533.2z M1399.8,547.5c4.7-2.7,10-4,15.6-4c7.2,0,13.1,2.2,17.5,6.7c4.4,4.4,6.7,10.3,6.7,17.6
				c0,8.9-3.1,16.6-9.1,22.6c-6,6.1-13.3,9.2-21.8,9.2c-7.1,0-13-2.2-17.4-6.7c-4.5-4.4-6.7-10.2-6.7-17.3c0-5.9,1.4-11.5,4.1-16.5
				C1391.4,554,1395.1,550.2,1399.8,547.5z"/>
			<path class="st0" d="M1549.2,546.6c-2.9-4.2-6.3-7.5-10.2-9.7c-4.6-2.6-10-3.8-16.1-3.8c-11.2,0-21.1,4.2-29.3,12.4
				c-8.2,8.3-12.4,18.4-12.4,29.9c0,10,3.3,18.4,9.6,24.8c6.4,6.4,14.6,9.7,24.5,9.7c10,0,19-3.6,26.9-10.9l-1.1,9.1h11.2l9.9-73.1
				h-11.4L1549.2,546.6z M1543,584.1c-2.7,5-6.5,8.9-11.1,11.6c-4.7,2.7-9.9,4-15.6,4c-7.2,0-13-2.2-17.4-6.7
				c-4.4-4.4-6.7-10.3-6.7-17.6c0-8.9,3.1-16.6,9.1-22.6c6-6.1,13.3-9.2,21.7-9.2c7.2,0,13,2.2,17.4,6.6c4.4,4.4,6.7,10.2,6.7,17.3
				C1547.1,573.4,1545.8,579,1543,584.1z"/>
			<polygon class="st0" points="1603.4,507.5 1589.7,608.1 1600.6,608.1 1614.2,507.5 			"/>
		</g>
	</g>
	<g>
		<g>
			<path class="st1" d="M1937.7,450.3c-0.4,23.7-35.8,24.2-35.8,0.1C1902.6,427.6,1937.8,426.5,1937.7,450.3z"/>
			<path class="st1" d="M1979.5,371.6c-22.8,0.1-23.9-30.2-1.1-31.6C2001.2,339.3,2002.9,371.4,1979.5,371.6z"/>
		</g>
		<g>
			<path class="st2" d="M1880.6,483.2c-0.7,23.6-33.1,23.1-33.1-0.4C1848.9,459.6,1880.3,460.1,1880.6,483.2z"/>
			<path class="st2" d="M1904.8,387.2c-0.5-21.2,34.3-24.5,34.9-2.1C1939.5,406.2,1905.6,410.2,1904.8,387.2z"/>
			<path class="st2" d="M1882.6,417.7c0.2,20.9-32,25.1-32.3,2.2C1849.9,398.8,1882.6,394.1,1882.6,417.7z"/>
		</g>
		<g>
			<path class="st3" d="M1977.5,503.2c-23.9-0.1-24.4-35.7-0.6-36.8C2001.3,466.5,2002.1,502.5,1977.5,503.2z"/>
			<path class="st3" d="M1879.4,547.6c-0.4,20.6-30.9,20.6-31.3,0C1848.5,527,1879,527,1879.4,547.6z"/>
		</g>
		<g>
			<path class="st4" d="M1887.1,356.3c0.6,17.7-30.2,26.7-31.7,5.4C1854.9,344.3,1885.9,334.7,1887.1,356.3z"/>
			<path class="st4" d="M1830.2,450.1c0.3,20.8-27.9,25.4-28.2,2.4C1801.6,431.3,1829.6,427.4,1830.2,450.1z"/>
			<path class="st4" d="M1923.9,342.9c-23.1-0.8-16.7-28.8,3.5-28.6C1950.2,315.1,1944.3,343.5,1923.9,342.9z"/>
			<path class="st4" d="M1834.6,388.3c1.1,17.7-26.9,28.1-27.7,6.1C1806.4,377.2,1833.6,366.6,1834.6,388.3z"/>
			<path class="st4" d="M1829,513.8c-0.1,21.7-27.4,21.7-27.5,0C1801.7,492.1,1829,492.1,1829,513.8z"/>
		</g>
		<g>
			<g>
				<path class="st5" d="M1832.5,305.9c-13.5-2.8,5.4-21.2,13.6-20.6C1863.4,284.5,1845.6,307.5,1832.5,305.9z"/>
				<path class="st5" d="M1737.6,458.3c-1.6-10.1,9.1-27.3,14.6-12.3C1757.4,463.1,1739.6,481.3,1737.6,458.3z"/>
				<path class="st5" d="M1736.4,506.1c0-11.1,9.1-18.4,14-5.2c2.5,6.6,3.6,19.3-4.9,21.7C1738,522.1,1737.1,511.7,1736.4,506.1z"/>
				<path class="st5" d="M1882.7,278.4c-8.6,1.2-11.9-6.8-5.2-11.5c5.1-6.5,30.1-10.9,21.6,3.3
					C1895,275.6,1888.9,277.9,1882.7,278.4z"/>
				<path class="st5" d="M1744,408.4c0.9-6.8,4.6-18.7,12.3-18.8c7.6,4.3,2.4,16.5-1.4,22.1C1750.3,419.5,1742.9,417.3,1744,408.4z"
					/>
				<path class="st5" d="M1808.8,320.1c0.7,7.3-21,26.8-21,11.2C1787.4,324.4,1808.9,304.3,1808.8,320.1z"/>
				<path class="st5" d="M1939.6,242.8c3.3,0.3,8.5-0.5,9.3,4.4c1,9.3-24.5,13.2-27.3,4.7C1921.7,244.7,1933.3,242.9,1939.6,242.8z"
					/>
				<path class="st5" d="M1755.7,557.9c5.3,17.4-7.2,21.2-12.4,3.8C1738,544.3,1750.5,540.6,1755.7,557.9z"/>
			</g>
			<g>
				<path class="st5" d="M1832.5,305.9c-13.5-2.8,5.4-21.2,13.6-20.6C1863.4,284.5,1845.6,307.5,1832.5,305.9z"/>
				<path class="st5" d="M1737.6,458.3c-1.6-10.1,9.1-27.3,14.6-12.3C1757.4,463.1,1739.6,481.3,1737.6,458.3z"/>
				<path class="st5" d="M1736.4,506.1c0-11.1,9.1-18.4,14-5.2c2.5,6.6,3.6,19.3-4.9,21.7C1738,522.1,1737.1,511.7,1736.4,506.1z"/>
				<path class="st5" d="M1882.7,278.4c-8.6,1.2-11.9-6.8-5.2-11.5c5.1-6.5,30.1-10.9,21.6,3.3
					C1895,275.6,1888.9,277.9,1882.7,278.4z"/>
				<path class="st5" d="M1744,408.4c0.9-6.8,4.6-18.7,12.3-18.8c7.6,4.3,2.4,16.5-1.4,22.1C1750.3,419.5,1742.9,417.3,1744,408.4z"
					/>
				<path class="st5" d="M1808.8,320.1c0.7,7.3-21,26.8-21,11.2C1787.4,324.4,1808.9,304.3,1808.8,320.1z"/>
				<path class="st5" d="M1939.6,242.8c3.3,0.3,8.5-0.5,9.3,4.4c1,9.3-24.5,13.2-27.3,4.7C1921.7,244.7,1933.3,242.9,1939.6,242.8z"
					/>
				<path class="st5" d="M1755.7,557.9c5.3,17.4-7.2,21.2-12.4,3.8C1738,544.3,1750.5,540.6,1755.7,557.9z"/>
			</g>
		</g>
		<g>
			<path class="st0" d="M1763.2,482c0.2-21.2,22.7-20.9,22.5,0C1785,502.7,1763.1,502.8,1763.2,482z"/>
			<path class="st0" d="M1873,320.4c-19.7-2.5-5.2-26.1,10.2-24.7C1903.6,297.8,1889.8,321.8,1873,320.4z"/>
			<path class="st0" d="M1842.4,331.8c1.7,15.1-25.2,30.6-26.5,10.7C1815.2,330.6,1838.9,315.9,1842.4,331.8z"/>
			<path class="st0" d="M1789,421.8c-0.5,9.5-7.3,18-14.2,17.5c-15.2-1.8-6.7-31.7,5.4-30.6C1785.6,408.8,1789.4,414.6,1789,421.8z"
				/>
			<path class="st0" d="M1927.3,293c-14.2,0.9-17.4-15.1-3.8-19.6c7.6-4.7,25.9-1.6,21.3,10.2C1941.3,290.6,1934.9,292.8,1927.3,293
				z"/>
			<path class="st0" d="M1980.5,253.8c19.7,0.2,19.2,18.3-0.1,18C1961.1,271.5,1960.5,253.3,1980.5,253.8z"/>
			<path class="st0" d="M1775,375.2c-0.6-9.8,18.3-28.3,22-11.1C1799.5,375.7,1776.7,396.6,1775,375.2z"/>
			<path class="st0" d="M1786,537.2c5.9,19.9-14.2,26-20.3,6.1C1759.8,523.4,1779.9,517.3,1786,537.2z"/>
			<path class="st0" d="M1790.4,590.3c7.5,17.9-9.1,24.9-16.7,7C1766.3,579.4,1782.8,572.4,1790.4,590.3z"/>
		</g>
	</g>
	<g>
		<g>
			<path class="st5" d="M216.6,239.6h111.3v19H236v60.9h91.1v19H236v76.3h91.1v19H216.6V239.6z"/>
			<g>
				<polygon class="st5" points="413.1,412.3 413.1,412.3 413,412.2 413,412.2 				"/>
				<polygon class="st5" points="345.2,290.2 364.8,290.2 413,412.2 413,412.2 413.1,412.3 413.1,412.3 413,412.2 460.7,290.2 
					480.5,290.2 422.9,433.7 422.8,433.7 403.2,433.7 403.2,433.7 				"/>
			</g>
			<path class="st5" d="M576.3,286.5c22.1,0,40.5,8,55,24c13.2,14.6,19.8,31.9,19.8,51.9c0,20.1-7,37.6-21,52.6
				c-14,15-31.9,22.5-53.9,22.5c-22,0-40.1-7.5-54-22.5c-14-15-21-32.5-21-52.6c0-19.9,6.6-37.1,19.8-51.8
				C535.7,294.6,554.1,286.5,576.3,286.5z M576.2,304.6c-15.4,0-28.6,5.7-39.6,17c-11,11.4-16.6,25.1-16.6,41.2
				c0,10.4,2.5,20.1,7.6,29.1c5,9,11.8,15.9,20.4,20.8c8.6,4.9,18,7.3,28.2,7.3c10.2,0,19.7-2.4,28.2-7.3
				c8.6-4.9,15.4-11.8,20.4-20.8c5-9,7.6-18.7,7.6-29.1c0-16.1-5.5-29.8-16.6-41.2C604.7,310.3,591.5,304.6,576.2,304.6z"/>
			<path class="st5" d="M682.6,234.7h18.5v199.1h-18.5V234.7z"/>
			<path class="st5" d="M737.1,290.2h18.5v67.1c0,16.4,0.9,27.6,2.6,33.8c2.6,8.8,7.7,15.8,15.1,20.9c7.4,5.1,16.3,7.7,26.6,7.7
				c10.3,0,19.1-2.5,26.2-7.5c7.2-5,12.1-11.5,14.9-19.6c1.9-5.5,2.8-17.3,2.8-35.3v-67.1h18.9v70.5c0,19.8-2.3,34.7-6.9,44.8
				c-4.6,10-11.6,17.9-20.9,23.6c-9.3,5.7-20.9,8.5-34.9,8.5c-14,0-25.7-2.8-35.1-8.5c-9.4-5.7-16.4-13.6-21-23.8
				c-4.6-10.2-6.9-25.5-6.9-45.9V290.2z"/>
			<path class="st5" d="M1043.3,320l-14.7,9.1c-12.7-16.8-29.9-25.2-51.8-25.2c-17.5,0-32,5.6-43.6,16.9
				c-11.6,11.3-17.3,24.9-17.3,41c0,10.5,2.7,20.3,8,29.5c5.3,9.2,12.6,16.4,21.9,21.5c9.3,5.1,19.7,7.7,31.2,7.7
				c21.1,0,38.3-8.4,51.7-25.2l14.7,9.6c-6.9,10.3-16.1,18.4-27.7,24.1c-11.6,5.7-24.8,8.6-39.6,8.6c-22.7,0-41.5-7.2-56.5-21.7
				c-15-14.4-22.4-32-22.4-52.7c0-13.9,3.5-26.8,10.5-38.8c7-11.9,16.6-21.2,28.8-27.9c12.2-6.7,25.9-10,41.1-10
				c9.5,0,18.7,1.5,27.5,4.4c8.8,2.9,16.3,6.7,22.5,11.4C1033.8,306.9,1039,312.8,1043.3,320z"/>
			<path class="st5" d="M1085.3,231c4.2,0,7.8,1.5,10.8,4.5c3,3,4.5,6.6,4.5,10.8c0,4.1-1.5,7.7-4.5,10.7c-3,3-6.6,4.5-10.8,4.5
				c-4.1,0-7.7-1.5-10.6-4.5c-3-3-4.5-6.6-4.5-10.7c0-4.2,1.5-7.8,4.5-10.8C1077.6,232.5,1081.1,231,1085.3,231z M1076.1,290.2h18.5
				v143.7h-18.5V290.2z"/>
			<path class="st5" d="M1201,286.5c22.1,0,40.5,8,55,24c13.2,14.6,19.8,31.9,19.8,51.9c0,20.1-7,37.6-21,52.6
				c-14,15-31.9,22.5-53.9,22.5c-22,0-40.1-7.5-54-22.5c-14-15-21-32.5-21-52.6c0-19.9,6.6-37.1,19.8-51.8
				C1160.4,294.6,1178.8,286.5,1201,286.5z M1200.9,304.6c-15.4,0-28.6,5.7-39.6,17c-11,11.4-16.6,25.1-16.6,41.2
				c0,10.4,2.5,20.1,7.6,29.1s11.8,15.9,20.4,20.8c8.6,4.9,18,7.3,28.2,7.3c10.2,0,19.7-2.4,28.2-7.3c8.6-4.9,15.4-11.8,20.4-20.8
				c5-9,7.6-18.7,7.6-29.1c0-16.1-5.5-29.8-16.6-41.2C1229.4,310.3,1216.2,304.6,1200.9,304.6z"/>
			<path class="st5" d="M1310.1,290.2h18.5v25.7c7.4-9.9,15.6-17.2,24.6-22.1c9-4.9,18.8-7.3,29.3-7.3c10.7,0,20.3,2.7,28.6,8.2
				c8.3,5.5,14.5,12.8,18.4,22.1c4,9.2,5.9,23.6,5.9,43.2v73.9h-18.5v-68.5c0-16.5-0.7-27.6-2.1-33.1c-2.1-9.5-6.2-16.7-12.3-21.5
				c-6.1-4.8-14-7.2-23.8-7.2c-11.2,0-21.2,3.7-30,11.1c-8.8,7.4-14.7,16.6-17.5,27.5c-1.8,7.1-2.6,20.2-2.6,39.1v52.7h-18.5V290.2z
				"/>
			<path class="st5" d="M1618.1,290.2v143.7h-18.2v-24.7c-7.7,9.4-16.4,16.5-26.1,21.3c-9.6,4.8-20.2,7.1-31.6,7.1
				c-20.3,0-37.7-7.4-52.1-22.1c-14.4-14.7-21.6-32.7-21.6-53.8c0-20.7,7.3-38.4,21.8-53.1c14.5-14.7,32-22.1,52.4-22.1
				c11.8,0,22.5,2.5,32,7.5c9.5,5,17.9,12.5,25.2,22.6v-26.4H1618.1z M1544.2,304.3c-10.3,0-19.8,2.5-28.5,7.6
				c-8.7,5.1-15.6,12.2-20.8,21.3c-5.1,9.1-7.7,18.8-7.7,29c0,10.1,2.6,19.8,7.8,29c5.2,9.2,12.2,16.4,20.9,21.6
				c8.7,5.1,18.1,7.7,28.2,7.7c10.1,0,19.7-2.6,28.8-7.7c9.1-5.1,16-12,20.9-20.7c4.9-8.7,7.3-18.5,7.3-29.4
				c0-16.6-5.5-30.5-16.4-41.7C1573.7,309.9,1560.2,304.3,1544.2,304.3z"/>
		</g>
		<g>
			<path class="st5" d="M216.6,239.6h111.3v19H236v60.9h91.1v19H236v76.3h91.1v19H216.6V239.6z"/>
			<g>
				<polygon class="st6" points="413.1,412.3 413.1,412.3 413,412.2 413,412.2 				"/>
				<polygon class="st5" points="345.2,290.2 364.8,290.2 413,412.2 413,412.2 413.1,412.3 413.1,412.3 413,412.2 460.7,290.2 
					480.5,290.2 422.9,433.7 422.8,433.7 403.2,433.7 403.2,433.7 				"/>
			</g>
			<path class="st5" d="M576.3,286.5c22.1,0,40.5,8,55,24c13.2,14.6,19.8,31.9,19.8,51.9c0,20.1-7,37.6-21,52.6
				c-14,15-31.9,22.5-53.9,22.5c-22,0-40.1-7.5-54-22.5c-14-15-21-32.5-21-52.6c0-19.9,6.6-37.1,19.8-51.8
				C535.7,294.6,554.1,286.5,576.3,286.5z M576.2,304.6c-15.4,0-28.6,5.7-39.6,17c-11,11.4-16.6,25.1-16.6,41.2
				c0,10.4,2.5,20.1,7.6,29.1c5,9,11.8,15.9,20.4,20.8c8.6,4.9,18,7.3,28.2,7.3c10.2,0,19.7-2.4,28.2-7.3
				c8.6-4.9,15.4-11.8,20.4-20.8c5-9,7.6-18.7,7.6-29.1c0-16.1-5.5-29.8-16.6-41.2C604.7,310.3,591.5,304.6,576.2,304.6z"/>
			<path class="st5" d="M682.6,234.7h18.5v199.1h-18.5V234.7z"/>
			<path class="st5" d="M737.1,290.2h18.5v67.1c0,16.4,0.9,27.6,2.6,33.8c2.6,8.8,7.7,15.8,15.1,20.9c7.4,5.1,16.3,7.7,26.6,7.7
				c10.3,0,19.1-2.5,26.2-7.5c7.2-5,12.1-11.5,14.9-19.6c1.9-5.5,2.8-17.3,2.8-35.3v-67.1h18.9v70.5c0,19.8-2.3,34.7-6.9,44.8
				c-4.6,10-11.6,17.9-20.9,23.6c-9.3,5.7-20.9,8.5-34.9,8.5c-14,0-25.7-2.8-35.1-8.5c-9.4-5.7-16.4-13.6-21-23.8
				c-4.6-10.2-6.9-25.5-6.9-45.9V290.2z"/>
			<path class="st5" d="M1043.3,320l-14.7,9.1c-12.7-16.8-29.9-25.2-51.8-25.2c-17.5,0-32,5.6-43.6,16.9
				c-11.6,11.3-17.3,24.9-17.3,41c0,10.5,2.7,20.3,8,29.5c5.3,9.2,12.6,16.4,21.9,21.5c9.3,5.1,19.7,7.7,31.2,7.7
				c21.1,0,38.3-8.4,51.7-25.2l14.7,9.6c-6.9,10.3-16.1,18.4-27.7,24.1c-11.6,5.7-24.8,8.6-39.6,8.6c-22.7,0-41.5-7.2-56.5-21.7
				c-15-14.4-22.4-32-22.4-52.7c0-13.9,3.5-26.8,10.5-38.8c7-11.9,16.6-21.2,28.8-27.9c12.2-6.7,25.9-10,41.1-10
				c9.5,0,18.7,1.5,27.5,4.4c8.8,2.9,16.3,6.7,22.5,11.4C1033.8,306.9,1039,312.8,1043.3,320z"/>
			<path class="st5" d="M1085.3,231c4.2,0,7.8,1.5,10.8,4.5c3,3,4.5,6.6,4.5,10.8c0,4.1-1.5,7.7-4.5,10.7c-3,3-6.6,4.5-10.8,4.5
				c-4.1,0-7.7-1.5-10.6-4.5c-3-3-4.5-6.6-4.5-10.7c0-4.2,1.5-7.8,4.5-10.8C1077.6,232.5,1081.1,231,1085.3,231z M1076.1,290.2h18.5
				v143.7h-18.5V290.2z"/>
			<path class="st5" d="M1201,286.5c22.1,0,40.5,8,55,24c13.2,14.6,19.8,31.9,19.8,51.9c0,20.1-7,37.6-21,52.6
				c-14,15-31.9,22.5-53.9,22.5c-22,0-40.1-7.5-54-22.5c-14-15-21-32.5-21-52.6c0-19.9,6.6-37.1,19.8-51.8
				C1160.4,294.6,1178.8,286.5,1201,286.5z M1200.9,304.6c-15.4,0-28.6,5.7-39.6,17c-11,11.4-16.6,25.1-16.6,41.2
				c0,10.4,2.5,20.1,7.6,29.1s11.8,15.9,20.4,20.8c8.6,4.9,18,7.3,28.2,7.3c10.2,0,19.7-2.4,28.2-7.3c8.6-4.9,15.4-11.8,20.4-20.8
				c5-9,7.6-18.7,7.6-29.1c0-16.1-5.5-29.8-16.6-41.2C1229.4,310.3,1216.2,304.6,1200.9,304.6z"/>
			<path class="st5" d="M1310.1,290.2h18.5v25.7c7.4-9.9,15.6-17.2,24.6-22.1c9-4.9,18.8-7.3,29.3-7.3c10.7,0,20.3,2.7,28.6,8.2
				c8.3,5.5,14.5,12.8,18.4,22.1c4,9.2,5.9,23.6,5.9,43.2v73.9h-18.5v-68.5c0-16.5-0.7-27.6-2.1-33.1c-2.1-9.5-6.2-16.7-12.3-21.5
				c-6.1-4.8-14-7.2-23.8-7.2c-11.2,0-21.2,3.7-30,11.1c-8.8,7.4-14.7,16.6-17.5,27.5c-1.8,7.1-2.6,20.2-2.6,39.1v52.7h-18.5V290.2z
				"/>
			<path class="st5" d="M1618.1,290.2v143.7h-18.2v-24.7c-7.7,9.4-16.4,16.5-26.1,21.3c-9.6,4.8-20.2,7.1-31.6,7.1
				c-20.3,0-37.7-7.4-52.1-22.1c-14.4-14.7-21.6-32.7-21.6-53.8c0-20.7,7.3-38.4,21.8-53.1c14.5-14.7,32-22.1,52.4-22.1
				c11.8,0,22.5,2.5,32,7.5c9.5,5,17.9,12.5,25.2,22.6v-26.4H1618.1z M1544.2,304.3c-10.3,0-19.8,2.5-28.5,7.6
				c-8.7,5.1-15.6,12.2-20.8,21.3c-5.1,9.1-7.7,18.8-7.7,29c0,10.1,2.6,19.8,7.8,29c5.2,9.2,12.2,16.4,20.9,21.6
				c8.7,5.1,18.1,7.7,28.2,7.7c10.1,0,19.7-2.6,28.8-7.7c9.1-5.1,16-12,20.9-20.7c4.9-8.7,7.3-18.5,7.3-29.4
				c0-16.6-5.5-30.5-16.4-41.7C1573.7,309.9,1560.2,304.3,1544.2,304.3z"/>
		</g>
	</g>
</g>
<g>
</g>
</svg>
