<svg id="Layer_1" data-name="Layer 1" xmlns="http://www.w3.org/2000/svg" viewBox="0 0 300 300"><defs><style>.cls-1{fill:#ee7f00;}</style></defs><title>tmfe Artboard 1 copy 5Icons</title><path class="cls-1" d="M253.89,130c0,15.9,0,31,0,46,0,5,1.13,6.11,5.94,7,7.22,1.38,13.83,3.58,19.67,8.68,6.67,5.83,11.86,14.08,11.92,22.64.05,6.63.09,13.26,0,19.89-.15,9.9-5,14.77-14.83,15.08-2.16.07-4.33,0-6.88,0-6.15,12.29-15.11,22.05-29.72,19.46-9.67-1.71-19.39-6.62-22.14-19H84c-.69,1.3-1.9,3.35-2.9,5.5-4.11,8.73-12.18,11.84-20.6,13.79-6.42,1.48-12.52-1.88-17.76-4.82-4.72-2.66-9-7.26-9.74-13.38-.3-2.61-1.78-2.82-3.35-4.15-4.66-3.95-12-2.54-15.44-8.34-5.1-.7-5.4-5.13-5.49-8.52q-.54-20.43-.06-40.87c.15-7.15,8.86-15.58,16.52-17a62.27,62.27,0,0,0,31.21-15.5c11.84-10.8,25.73-17.71,42.34-17.65,15.84.06,31.67.18,47.51,0,16.51-.22,30,6.58,43.21,15.91,11.14,7.89,21.85,17,35.63,20.5,2.65.67,5.37,1.06,8.56,1.69V130c-8.33,0-17,.05-25.74,0-11.13-.09-15.78-4.88-15.88-16.25,0-3.31.21-6.65-.06-9.94-.36-4.43,1.2-8.06,3.9-11.45,3.86.76,5.16,3.14,5.05,7-.2,7-.06,13.94-.06,21.38h81.53V39.83H201.29c-1,4.07-.31,8.77-.42,13.4-.12,4.78-.2,9.58,0,14.35.18,3.74-1.38,6-4.64,7.76-3.19-3.61-4.56-7.2-4.32-11.62.27-5.14.06-10.31.07-15.46,0-9.22.46-10.21,7.83-17.69H275c2.21,0,4.43-.15,6.63,0,4.91.42,9.57,5,9.81,9.91.24,5.15,0,10.31,0,15.47,0,19.89,0,39.77,0,59.66,0,3.11,1,6.37-2.21,9.07-3.65,3-7.24,5.43-12.2,5.34C269.65,129.94,262.29,130,253.89,130Zm19,113.9c2-1.57,2.76-2.56,3.67-2.76,5.22-1.19,6.58-4.42,6.19-9.5-.46-5.85-.07-11.77-.12-17.65-.07-8.35-7-16.78-14.77-20-11.29-4.71-23.35-6.23-35.09-8.29-10.24-1.8-19.13-5.75-27.63-10.77-9.85-5.81-18.75-13.23-28.52-19.22-7.65-4.7-15.78-8.33-25.36-8.13-19.12.4-38.26.1-57.39.15-2.49,0-5.15-.09-7.44.69a74.43,74.43,0,0,0-27.55,16.21C51.24,171.85,42,176.3,31.63,178.76c-5.32,1.27-11.12,2.33-13.77,7.18v46L32.5,239.1c.24-6.79,2.64-11.77,7.3-15.39,9.09-7.06,18.52-11.05,30.83-4.12,7.17,4,12.13,9.31,13,17.65.37,3.48,2.18,5.12,5.33,5.46a60.7,60.7,0,0,0,6.61.05H216c.86-10.19,5.48-17.84,13.61-23.21,7-4.66,14.6-4.18,22.35-1.95,10.18,2.93,14.69,10.62,17.45,20C270,239.52,271.35,241.21,272.87,243.93ZM60.8,260.42c.25,0,3.44.3,4.92-1.13,2.59-2.51,6.83-3.29,7.89-7.49.82-3.3,4.59-5.86,3.36-9.56-1.5-4.5-3.09-9.27-5.93-12.93-3.15-4.07-8.42-4.45-13.58-4.3-10.78.29-18,7.21-18,17.74C39.5,253.65,46.85,260.47,60.8,260.42Zm190.09-.31c1.57-1.56,3-3.27,4.71-4.66,7-5.7,5.5-8.49,4.81-16-.92-9.82-6.52-14.34-16.49-14.4-2.94,0-5.88,0-8.62,0-7.8,6.33-13,13.74-9.13,24.12C230.37,260.34,239.78,261.38,250.89,260.11ZM240.63,130.29c0,15.18-.11,30.1.13,45,0,1.88,5.94,3.48,5.94,2.69.14-15.91.1-31.83.1-47.71Zm19.89-67.71V76.15c-3.88,2-5.41,6.76-11,7.94A106.49,106.49,0,0,1,236.21,86v17c-7.75-.17-8.77-.82-8.81-6.24q-.15-18.77,0-37.51c0-4.77,1.7-6.66,6.34-6.5s9.11-.18,13.86.95C253.47,55.12,256.63,59.08,260.52,62.58ZM236.38,77c4.16,0,7.46.3,10.67-.14,1.52-.2,3.82-1.63,4.06-2.84a25.72,25.72,0,0,0,.06-9.46c-.22-1.21-2.53-2.71-4-2.9-3.5-.43-7.08-.13-10.76-.13Zm-160-.07A13.06,13.06,0,0,0,80,75.14c5.79-3.77,11.2-8.38,17.41-11.22a53.56,53.56,0,0,1,25.65-4.73c14.75.87,28,4.84,38.89,15.34,3.89,3.76,4.93,3.54,9.63-1.27-13.92-16.63-32.6-22.07-53.36-22.9-3.11-.12-5.32,1.72-7.94,2.13-3.13.49-6.08,1.71-9,2.16-11,1.69-19.32,7.69-26.78,15.19C73.07,71.26,73,74,72.15,76.6,74.28,76.8,75.39,77.17,76.34,76.92Zm28.21.57C98.05,80,90.82,83.13,87.8,91.14L92.26,95c4.94-3.36,9.58-5.88,13.44-9.29,4.87-4.3,11.41.29,16.09-3.73,4.27,3.27,10,.09,14.51,3.71,4.23,3.41,9.29,5.81,15.28,9.44l4.08-4.31C141.45,73.54,119.79,71.6,104.55,77.49Zm11.33,30c5.06-2.64,9.11-2.78,13.64.83,3.82,3,4.23,2.74,9.09-1.83-6.29-9-17.22-10.54-25.6-6.7-3.82,1.75-9.29,3.19-6.73,9.72C110.15,112.28,113.19,108.89,115.88,107.48Zm95.79,78.63c.07.91.22,2,.21,3-.09,9-.41,9.39-9.08,9.4-33.88,0-67.76,0-101.65.05-3.72,0-7.29.11-8.74-4.89,4.58-5.53,11.34-3.64,17.55-4V161.29c-11.34-1-22.4-.81-32.22,6.31-4.81,3.49-9.7,6.88-14.42,10.5C59,181.43,54.78,185,49,189.71c7,0,12.06-.1,17.13,0,4.83.12,5.46,1,6.65,8.42-3.56.13-7.06.32-10.57.38-3.68.07-7.38.21-11,0-3.31-.23-6.82-4.31-7.22-8.09-.2-1.82,0-3.68,0-6.79,5.47-4.27,11.56-9,17.66-13.79,1.67-1.31,3.38-2.55,5-3.9a54,54,0,0,1,26.07-12c16.37-2.92,32.61-1.16,48.88-1.64a71.74,71.74,0,0,1,20,2.28c5.17,1.35,10.08,4.3,14.61,7.28C188.08,169.68,199.73,177.91,211.67,186.11Zm-8.78,3.17c-12.47-8-23.4-14.46-33.68-21.83-5.69-4.07-12.26-5.39-18.36-6.11-11.13-1.3-22.51-.37-33.73-.37v28.31Zm-71,18.76c-4.59-3-4.59-3.06-17.59-2.82-.6,0-1.18.65-1.81,1v4.39C123.51,215.92,125.13,215.71,131.87,208ZM62.79,253.72H51.86c-7.31-8.78-8.14-15.26-2.06-20,2.35-1.83,5.61-4,8.21-3.66a17.19,17.19,0,0,1,9.68,4.84c1.89,1.93,2.25,5.66,2.65,8.67C70.68,246.17,70.28,246.22,62.79,253.72Zm-7.54-16.33c-.56,4.72-.72,7.84,3.37,9.45C62.42,242.21,62.42,242.21,55.25,237.39Zm201.12,5.55c-1.71,2.77-2.89,5.32-4.64,7.4-4.32,5.12-13.53,5-17.95-.07-3.19-3.64-3-12.36.68-15.61,2.3-2,5.09-3.54,7.56-5.21C249.23,231.14,253.45,235.86,256.37,242.94Zm-7.46-.08-6.56-5.34-3.87,3.75c1.56,2.55,2.7,4.41,4.72,7.69Z"/></svg>